<svg width="76" height="78" viewBox="0 0 76 78" fill="none" xmlns="http://www.w3.org/2000/svg">
<path d="M62.3455 40.5358C61.9783 39.684 61.5157 38.8689 60.9943 37.8408C60.3995 38.8983 59.9001 39.7427 59.4448 40.6019C59.2248 41.0775 58.8635 41.4737 58.4101 41.7366C57.9568 41.9994 57.4334 42.116 56.9113 42.0706C53.6435 42.0266 50.3683 42.0339 47.0931 42.0266H45.6758C45.3748 43.8551 45.081 45.6395 44.8093 47.424C43.7372 54.2583 42.6626 61.0877 41.5856 67.9122C41.3432 69.3809 40.4987 70.1887 39.2063 70.1593C37.9138 70.1299 37.1281 69.3148 36.9372 67.8975C35.1698 55.2178 33.405 42.5333 31.6425 29.8438C31.4784 28.4639 31.2183 27.0972 30.8641 25.7535C30.5116 28.0153 30.1298 30.2844 29.814 32.5462L28.7345 39.7427C28.4775 41.4317 27.7138 42.0706 26.0028 42.0706C19.3937 42.0706 12.7846 42.1073 6.17546 42.0706H5.79361H0.0950928C0.759663 51.5709 4.99916 60.4666 11.9599 66.9663C18.9206 73.466 28.0854 77.0869 37.6089 77.1C47.1325 77.113 56.3072 73.5172 63.2857 67.0365C70.2641 60.5559 74.528 51.6719 75.2185 42.1734C71.8552 42.1734 68.4993 42.1734 65.136 42.2248C64.5502 42.287 63.9602 42.1555 63.4562 41.8504C62.9522 41.5454 62.5621 41.0837 62.3455 40.5358Z" fill="#39BA80"/>
<path d="M0 0V35.5863H24.4096C24.7401 33.4273 25.0705 31.3345 25.3863 29.2416L28.7129 7.24798C28.7129 7.12314 28.7643 6.98361 28.7936 6.85143C28.8513 6.27437 29.1277 5.74128 29.566 5.36162C30.0044 4.98196 30.5715 4.78456 31.1509 4.80995C31.7361 4.82243 32.2947 5.057 32.7133 5.4661C33.132 5.87521 33.3794 6.42822 33.4053 7.01299C34.2425 12.9245 35.0503 18.8359 35.8727 24.7401L38.8101 45.8745C38.9643 46.9466 39.0965 48.0188 39.3241 49.1423L40.9764 40.22C41.1086 39.3902 41.2408 38.5678 41.3803 37.7453C41.4023 37.4403 41.4853 37.1429 41.6244 36.8706C41.7635 36.5983 41.9559 36.3567 42.1901 36.1601C42.4243 35.9636 42.6956 35.8161 42.9879 35.7263C43.2803 35.6366 43.5876 35.6065 43.8918 35.6377C47.5635 35.6377 51.3086 35.6377 55.0097 35.6818C55.2744 35.7136 55.5423 35.6594 55.7737 35.5272C56.0052 35.3949 56.1879 35.1916 56.2948 34.9474C57.1173 33.4053 58.0206 31.8999 58.8577 30.3651C59.3791 29.4105 60.04 28.7055 61.215 28.7569C62.3899 28.8083 63.0068 29.5353 63.4694 30.5047C64.2037 32.0247 64.9748 33.5228 65.6724 35.0429C65.751 35.2952 65.9148 35.5123 66.1359 35.657C66.3569 35.8017 66.6215 35.865 66.8841 35.836C69.6966 35.7993 72.4945 35.7919 75.307 35.7993V0H0Z" fill="#39BA80"/>
</svg>
